<svg viewBox="0 0 24 24" fill="#ffffff" xmlns="http://www.w3.org/2000/svg" width="40" height="40" aria-label="Icon" role="img"><path fill-rule="evenodd" clip-rule="evenodd" d="M19 3C20.1046 3 21 3.89543 21 5V6C21 6.93173 20.3624 7.71244 19.5 7.93457V15.0654C20.3623 15.2877 21 16.0683 21 17V19C21 20.0357 20.2128 20.887 19.2041 20.9893L19 21H18.5L18.2959 20.9893C17.3543 20.8938 16.6062 20.1457 16.5107 19.2041L16.5 19V17C16.5 16.0683 17.1377 15.2877 18 15.0654V8H5L4.7959 7.98926C3.85435 7.8938 3.1062 7.14565 3.01074 6.2041L3 6V5C3 3.89543 3.89543 3 5 3H19ZM18.5 16.5C18.2239 16.5 18 16.7239 18 17V19C18 19.2761 18.2239 19.5 18.5 19.5H19C19.2761 19.5 19.5 19.2761 19.5 19V17C19.5 16.7239 19.2761 16.5 19 16.5H18.5ZM5 4.5C4.72386 4.5 4.5 4.72386 4.5 5V6C4.5 6.27614 4.72386 6.5 5 6.5H19C19.2761 6.5 19.5 6.27614 19.5 6V5C19.5 4.72386 19.2761 4.5 19 4.5H5Z"></path></svg>