<svg viewBox="0 0 20 20" fill="#ffffff" xmlns="http://www.w3.org/2000/svg" width="40" height="40" aria-label="Icon" role="img"><path fill-rule="evenodd" clip-rule="evenodd" d="M15 10C15 12.0503 13.7659 13.8124 12 14.584V16C12 17.1046 11.1046 18 10 18C8.89543 18 8 17.1046 8 16V14.584C6.23409 13.8124 5 12.0503 5 10C5 7.23858 7.23858 5 10 5C12.7614 5 15 7.23858 15 10ZM10 14C12.2091 14 14 12.2091 14 10C14 7.79086 12.2091 6 10 6C7.79086 6 6 7.79086 6 10C6 12.2091 7.79086 14 10 14ZM10 15C10.3425 15 10.6769 14.9656 11 14.9V16C11 16.5523 10.5523 17 10 17C9.44771 17 9 16.5523 9 16V14.9C9.32311 14.9656 9.65753 15 10 15Z"></path></svg>